<svg width="33" height="33" viewBox="0 0 33 33" fill="none" xmlns="http://www.w3.org/2000/svg">
<path d="M18.1123 0C25.9361 0.776665 32.172 6.97346 32.9164 14.8227C33.8261 23.9114 27.2098 31.9755 18.1123 32.8843V29.5794C24.1332 28.8688 28.8639 24.0931 29.6247 18.0781C30.5179 10.8237 25.3737 4.23035 18.1123 3.33801V0.0330495V0ZM14.8041 0.0495743V3.35453C12.4387 3.68503 10.2057 4.64347 8.35315 6.1307L5.9878 3.68503C8.50202 1.6029 11.5786 0.363545 14.8041 0.0495743ZM3.65554 6.01502L6.02088 8.37807C4.54875 10.2454 3.62246 12.4762 3.30818 14.8227H0C0.330818 11.5839 1.57139 8.52679 3.65554 6.01502ZM0.0165409 18.1277H3.32472C3.62246 20.4742 4.56529 22.7051 6.02088 24.5724L3.67208 26.9354C1.62101 24.4236 0.347359 21.3666 0.0165409 18.1277ZM8.35315 27.0015C10.2223 28.4557 12.4553 29.3976 14.8041 29.695V33C11.5621 32.653 8.48548 31.3475 5.9878 29.2654L8.35315 27.0015ZM16.4582 9.03906L9.01479 16.4752H14.8041V23.0851H18.1123V16.4752H23.9016L16.4582 9.03906Z" fill="url(#paint0_linear_327_9168)"/>
<defs>
<linearGradient id="paint0_linear_327_9168" x1="31.345" y1="29.6124" x2="1.84546" y2="2.81367" gradientUnits="userSpaceOnUse">
<stop stop-color="#FF008A"/>
<stop offset="1" stop-color="#5359E7"/>
</linearGradient>
</defs>
</svg>
